<?xml version="1.0" standalone="no"?>
<!DOCTYPE svg PUBLIC "-//W3C//DTD SVG 20010904//EN"
 "http://www.w3.org/TR/2001/REC-SVG-20010904/DTD/svg10.dtd">
<svg version="1.0" xmlns="http://www.w3.org/2000/svg"
 width="496.000000pt" height="496.000000pt" viewBox="0 0 496.000000 496.000000"
 preserveAspectRatio="xMidYMid meet">
<metadata>
Created by potrace 1.11, written by Peter Selinger 2001-2013
</metadata>
<g transform="translate(0.000000,496.000000) scale(0.100000,-0.100000)"
fill="#000000" stroke="none">
<path d="M384 4863 c-62 -16 -122 -31 -154 -36 -71 -14 -126 -31 -136 -43 -22
-27 -3 -267 36 -449 24 -115 33 -172 45 -285 13 -121 2 -661 -20 -990 -16
-228 -23 -333 -30 -405 -2 -27 -7 -86 -10 -130 -4 -44 -8 -91 -10 -103 -2 -13
-7 -60 -10 -105 -4 -45 -8 -95 -10 -112 -3 -16 -7 -66 -10 -110 -4 -44 -8 -93
-10 -110 -2 -16 -7 -73 -10 -125 -4 -52 -9 -111 -10 -130 -2 -19 -7 -80 -10
-135 -3 -55 -8 -120 -10 -144 -12 -122 -19 -368 -19 -656 -1 -304 0 -324 22
-399 41 -143 112 -255 185 -293 39 -20 121 -20 167 0 96 41 180 199 205 387 3
25 8 53 11 63 8 25 7 247 -1 327 -10 104 -14 136 -46 310 -16 90 -32 192 -35
225 -3 33 -7 74 -10 90 -13 75 -5 472 11 560 33 189 116 295 227 295 84 0 115
-43 448 -615 340 -585 702 -1009 1069 -1252 262 -173 524 -272 796 -300 91
-10 352 -10 435 0 109 13 121 15 194 32 443 104 793 352 1019 726 39 63 82
150 128 254 14 33 77 247 83 285 3 19 8 46 11 60 3 14 7 45 10 70 3 25 8 61
11 80 6 42 6 287 0 315 -2 11 -7 49 -11 85 -7 67 -56 322 -81 423 -8 31 -21
85 -29 120 -41 163 -170 570 -240 752 -55 145 -77 201 -94 240 -10 22 -31 69
-47 105 -166 382 -392 693 -558 771 -59 28 -75 31 -136 27 -82 -4 -118 -26
-139 -84 -23 -61 -21 -324 3 -441 11 -54 48 -175 70 -229 39 -95 180 -364 326
-619 13 -22 34 -60 48 -85 14 -25 36 -63 48 -85 57 -97 225 -448 252 -526 56
-160 85 -330 85 -509 0 -83 -10 -227 -19 -272 -2 -13 -7 -39 -10 -58 -11 -61
-53 -205 -74 -256 -41 -95 -54 -120 -104 -194 -91 -138 -229 -256 -378 -323
-67 -31 -212 -74 -283 -84 -67 -10 -384 -10 -462 0 -280 35 -573 171 -858 400
-123 99 -238 213 -375 373 -82 94 -270 362 -352 499 -147 245 -354 682 -485
1020 -28 72 -54 139 -58 150 -5 11 -9 25 -11 30 -1 6 -26 75 -54 155 -29 80
-53 150 -54 155 -2 6 -6 17 -9 25 -28 74 -144 468 -198 675 -42 160 -133 528
-144 583 -4 20 -13 32 -23 33 -9 0 -27 2 -38 3 -12 1 -44 -3 -70 -11z"/>
</g>
</svg>
